Coordinates
nRows=20
nColumns=34

# SIMM Motion File Header:
name Coordinates
datacolumns 34
datarows 20
otherdata 1
range 0.45000000 0.46900000

Units are S.I. units (second, meters, Newtons, ...)
Angles are in degrees.

endheader
time	pelvis_tz	pelvis_tx	pelvis_ty	pelvis_tilt	pelvis_list	pelvis_rotation	hip_flexion_r	hip_adduction_r	hip_rotation_r	knee_r_tx	knee_r_ty	knee_angle_r	tib_pat_r_tx	tib_pat_r_ty	tib_pat_r_r1	ankle_angle_r	subtalar_angle_r	mtp_angle_r	hip_flexion_l	hip_adduction_l	hip_rotation_l	knee_l_tx	knee_l_ty	knee_angle_l	tib_pat_l_tx	tib_pat_l_ty	tib_pat_l_r1	ankle_angle_l	subtalar_angle_l	mtp_angle_l	lumbar_extension	lumbar_bending	lumbar_rotation
      0.45000000	     -0.26151637	      0.28284139	      0.91055346	     -1.31517407	     -0.20547850	     -2.51627887	     -9.22153384	      2.11712951	     16.75773309	     -0.00418467	     -0.41345124	     -4.26679862	      0.04612392	     -0.02114023	      4.57541303	     16.17525279	     -0.00000000	      0.00000000	     23.80070895	      0.62316722	      6.35111854	     -0.00152979	     -0.41472300	    -17.79158489	      0.04418895	     -0.02056291	     12.92581487	      3.41643421	     -0.00000000	      0.00000000	     -5.08705493	      4.75486842	      2.67765249
      0.45100000	     -0.26158645	      0.28378642	      0.91032865	     -1.30956384	     -0.25700747	     -2.51929891	     -9.27863224	      2.17256222	     16.77904444	     -0.00417920	     -0.41345440	     -4.30635398	      0.04611925	     -0.02113863	      4.61313870	     16.23599185	     -0.00000000	      0.00000000	     23.78795054	      0.56949630	      6.44603160	     -0.00160289	     -0.41468646	    -17.46732461	      0.04423356	     -0.02057381	     12.81260147	      3.37272785	     -0.00000000	      0.00000000	     -5.11274349	      4.81905738	      2.67732758
      0.45200000	     -0.26165574	      0.28473264	      0.91010319	     -1.30375013	     -0.30811090	     -2.52271326	     -9.33554925	      2.22766238	     16.80056791	     -0.00417360	     -0.41345763	     -4.34669814	      0.04611446	     -0.02113699	      4.65152108	     16.29657396	     -0.00000000	      0.00000000	     23.77467012	      0.51586537	      6.54010814	     -0.00167583	     -0.41465053	    -17.14490865	      0.04427771	     -0.02058468	     12.69673686	      3.32851870	     -0.00000000	      0.00000000	     -5.13858938	      4.88254613	      2.67731567
      0.45300000	     -0.26172422	      0.28568004	      0.90987711	     -1.29773489	     -0.35876888	     -2.52652375	     -9.39228343	      2.28240855	     16.82229045	     -0.00416789	     -0.41346093	     -4.38783128	      0.04610954	     -0.02113531	      4.69055483	     16.35699887	     -0.00000000	      0.00000000	     23.76088271	      0.46229646	      6.63331453	     -0.00174854	     -0.41461521	    -16.82441396	      0.04432145	     -0.02059553	     12.57823630	      3.28381255	     -0.00000000	      0.00000000	     -5.16458748	      4.94530802	      2.67762149
      0.45400000	     -0.26179189	      0.28662866	      0.90965044	     -1.29152027	     -0.40896166	     -2.53073194	     -9.44883339	      2.33677937	     16.84419892	     -0.00416204	     -0.41346430	     -4.42975315	      0.04610450	     -0.02113359	      4.73023408	     16.41726664	     -0.00000000	      0.00000000	     23.74660365	      0.40881193	      6.72561775	     -0.00182094	     -0.41458050	    -16.50591736	      0.04436479	     -0.02060637	     12.45712040	      3.23861512	     -0.00000000	      0.00000000	     -5.19073240	      5.00731669	      2.67824963
      0.45500000	     -0.26185875	      0.28757849	      0.90942321	     -1.28510861	     -0.45866959	     -2.53533912	     -9.50519765	      2.39075353	     16.86628014	     -0.00415608	     -0.41346773	     -4.47246318	      0.04609932	     -0.02113182	      4.77055260	     16.47737766	     -0.00000000	      0.00000000	     23.73184857	      0.35543444	      6.81698548	     -0.00189294	     -0.41454638	    -16.18949556	      0.04440777	     -0.02061721	     12.33341510	      3.19293209	     -0.00000000	      0.00000000	     -5.21701841	      5.06854603	      2.67920454
      0.45600000	     -0.26192478	      0.28852956	      0.90919545	     -1.27850248	     -0.50787317	     -2.54034632	     -9.56137465	      2.44430982	     16.88852084	     -0.00414998	     -0.41347123	     -4.51596067	      0.04609403	     -0.02113001	      4.81150393	     16.53733278	     -0.00000000	      0.00000000	     23.71663336	      0.30218698	      6.90738606	     -0.00196448	     -0.41451285	    -15.87522504	      0.04445041	     -0.02062807	     12.20715175	      3.14676907	     -0.00000000	      0.00000000	     -5.24343949	      5.12897017	      2.68049053
      0.45700000	     -0.26198998	      0.28948189	      0.90896719	     -1.27170465	     -0.55655301	     -2.54575425	     -9.61736265	      2.49742712	     16.91090761	     -0.00414376	     -0.41347479	     -4.56024493	      0.04608860	     -0.02112816	      4.85308154	     16.59713333	     -0.00000000	      0.00000000	     23.70097416	      0.24909285	      6.99678857	     -0.00203547	     -0.41447990	    -15.56318204	      0.04449272	     -0.02063894	     12.07836712	      3.10013159	     -0.00000000	      0.00000000	     -5.26998934	      5.18856350	      2.68211179
      0.45800000	     -0.26205435	      0.29043548	      0.90873845	     -1.26471806	     -0.60468983	     -2.55156334	     -9.67315969	      2.55008445	     16.93342690	     -0.00413741	     -0.41347842	     -4.60531537	      0.04608304	     -0.02112626	      4.89527892	     16.65678121	     -0.00000000	      0.00000000	     23.68488737	      0.19617569	      7.08516280	     -0.00210586	     -0.41444752	    -15.25344251	      0.04453474	     -0.02064983	     11.94710345	      3.05302510	     -0.00000000	      0.00000000	     -5.29666131	      5.24730061	      2.68407237
      0.45900000	     -0.26211788	      0.29139034	      0.90850929	     -1.25754587	     -0.65226446	     -2.55777376	     -9.72876353	      2.60226095	     16.95606501	     -0.00413092	     -0.41348212	     -4.65117174	      0.04607735	     -0.02112432	      4.93808977	     16.71627894	     -0.00000000	      0.00000000	     23.66838962	      0.14345947	      7.17247931	     -0.00217557	     -0.41441570	    -14.94608205	      0.04457648	     -0.02066076	     11.81340840	      3.00545496	     -0.00000000	      0.00000000	     -5.32344851	      5.30515634	      2.68637618
      0.46000000	     -0.26218056	      0.29234651	      0.90827972	     -1.25019145	     -0.69925785	     -2.56438532	     -9.78417161	      2.65393593	     16.97880805	     -0.00412431	     -0.41348589	     -4.69781411	      0.04607152	     -0.02112233	      4.98150804	     16.77562974	     -0.00000000	      0.00000000	     23.65149774	      0.09096849	      7.25870946	     -0.00224453	     -0.41438444	    -14.64117585	      0.04461797	     -0.02067173	     11.67733513	      2.95742645	     -0.00000000	      0.00000000	     -5.35034370	      5.36210574	      2.68902702
      0.46100000	     -0.26224241	      0.29330398	      0.90804978	     -1.24265831	     -0.74565103	     -2.57139758	     -9.83938107	      2.70508886	     17.00164197	     -0.00411757	     -0.41348972	     -4.74524294	      0.04606556	     -0.02112030	      5.02552792	     16.83483746	     -0.00000000	      0.00000000	     23.63422879	      0.03872734	      7.34382539	     -0.00231270	     -0.41435373	    -14.33879868	      0.04465922	     -0.02068275	     11.53894217	      2.90894473	     -0.00000000	      0.00000000	     -5.37733938	      5.41812410	      2.69202855
      0.46200000	     -0.26230340	      0.29426277	      0.90781950	     -1.23495020	     -0.79142523	     -2.57880977	     -9.89438879	      2.75569938	     17.02455257	     -0.00411069	     -0.41349362	     -4.79345889	      0.04605946	     -0.02111822	      5.07014370	     16.89390652	     -0.00000000	      0.00000000	     23.61660002	     -0.01323909	      7.42780007	     -0.00237999	     -0.41432356	    -14.03902478	      0.04470024	     -0.02069381	     11.39829350	      2.86001489	     -0.00000000	      0.00000000	     -5.40442775	      5.47318698	      2.69538426
      0.46300000	     -0.26236355	      0.29522290	      0.90758892	     -1.22707100	     -0.83656179	     -2.58662081	     -9.94919145	      2.80574735	     17.04752559	     -0.00410368	     -0.41349759	     -4.84246280	      0.04605323	     -0.02111610	      5.11534975	     16.95284188	     -0.00000000	      0.00000000	     23.59862884	     -0.06490569	      7.51060734	     -0.00244637	     -0.41429392	    -13.74192785	      0.04474106	     -0.02070493	     11.25545842	      2.81064187	     -0.00000000	      0.00000000	     -5.43160071	      5.52727027	      2.69909747
      0.46400000	     -0.26242285	      0.29618438	      0.90735807	     -1.21902480	     -0.88104226	     -2.59482930	    -10.00378558	      2.85521284	     17.07054665	     -0.00409653	     -0.41350163	     -4.89225552	      0.04604685	     -0.02111393	      5.16114036	     17.01164895	     -0.00000000	      0.00000000	     23.58033286	     -0.11624711	      7.59222189	     -0.00251177	     -0.41426481	    -13.44758101	      0.04478169	     -0.02071611	     11.11051152	      2.76083052	     -0.00000000	      0.00000000	     -5.45884990	      5.58035017	      2.70317132
      0.46500000	     -0.26248130	      0.29714722	      0.90712699	     -1.21081586	     -0.92484840	     -2.60343354	    -10.05816755	      2.90407613	     17.09360135	     -0.00408925	     -0.41350574	     -4.94283788	      0.04604033	     -0.02111171	      5.20750970	     17.07033351	     -0.00000000	      0.00000000	     23.56172984	     -0.16723783	      7.67261929	     -0.00257614	     -0.41423621	    -13.15605669	      0.04482213	     -0.02072735	     10.96353263	      2.71058558	     -0.00000000	      0.00000000	     -5.48616663	      5.63240328	      2.70760872
      0.46600000	     -0.26253890	      0.29811144	      0.90689571	     -1.20244857	     -0.96796218	     -2.61243151	    -10.11233369	      2.95231777	     17.11667527	     -0.00408183	     -0.41350991	     -4.99421055	      0.04603368	     -0.02110945	      5.25445168	     17.12890169	     -0.00000000	      0.00000000	     23.54283768	     -0.21785219	      7.75177604	     -0.00263944	     -0.41420813	    -12.86742663	      0.04486240	     -0.02073866	     10.81460670	      2.65991164	     -0.00000000	      0.00000000	     -5.51354197	      5.68340660	      2.71241240
      0.46700000	     -0.26259565	      0.29907706	      0.90666426	     -1.19392754	     -1.01036583	     -2.62182086	    -10.16628030	      2.99991855	     17.13975402	     -0.00407427	     -0.41351416	     -5.04637395	      0.04602687	     -0.02110713	      5.30195994	     17.18735987	     -0.00000000	      0.00000000	     23.52367443	     -0.26806438	      7.82966957	     -0.00270163	     -0.41418056	    -12.58176182	      0.04490250	     -0.02075003	     10.66382371	      2.60881320	     -0.00000000	      0.00000000	     -5.54096669	      5.73333758	      2.71758480
      0.46800000	     -0.26265156	      0.30004408	      0.90643269	     -1.18525749	     -1.05204185	     -2.63159891	    -10.22000369	      3.04685954	     17.16282325	     -0.00406657	     -0.41351847	     -5.09932818	      0.04601993	     -0.02110477	      5.35002769	     17.24571467	     -0.00000000	      0.00000000	     23.50425825	     -0.31784852	      7.90627826	     -0.00276265	     -0.41415348	    -12.29913242	      0.04494245	     -0.02076147	     10.51127857	      2.55729459	     -0.00000000	      0.00000000	     -5.56843130	      5.78217415	      2.72312814
      0.46900000	     -0.26270663	      0.30101252	      0.90620102	     -1.17644331	     -1.09297301	     -2.64176268	    -10.27350017	      3.09312210	     17.18586864	     -0.00405873	     -0.41352286	     -5.15307298	      0.04601283	     -0.02110236	      5.39864778	     17.30397286	     -0.00000000	      0.00000000	     23.48460742	     -0.36717865	      7.98158146	     -0.00282247	     -0.41412690	    -12.01960774	      0.04498225	     -0.02077298	     10.35707098	      2.50536002	     -0.00000000	      0.00000000	     -5.59592602	      5.82989469	      2.72904437
